<?xml version="1.0" encoding="utf-8"?>
<!-- Generator: Adobe Illustrator 25.2.1, SVG Export Plug-In . SVG Version: 6.00 Build 0)  -->
<svg version="1.1" id="Calque_1" xmlns="http://www.w3.org/2000/svg" xmlns:xlink="http://www.w3.org/1999/xlink" x="0px" y="0px"
	 viewBox="0 0 1110 214" style="enable-background:new 0 0 1110 214;" xml:space="preserve">
<style type="text/css">
	.st0{fill:#2C3E50;}
	.st1{fill:#34B298;}
	.st2{fill:#FFFFFF;}
</style>
<rect class="st0" width="1110" height="214"/>
<g>
	<path class="st1" d="M77.33,102.64c0,8.61-6.24,13.81-16.52,13.81H49.95v12.77h-4.27V88.78h15.14
		C71.1,88.78,77.33,93.98,77.33,102.64z M73.06,102.64c0-6.47-4.27-10.17-12.36-10.17H49.95v20.22H60.7
		C68.78,112.69,73.06,109,73.06,102.64z"/>
	<path class="st1" d="M100.27,98.6v3.99c-0.35,0-0.69-0.06-0.98-0.06c-6.35,0-10.23,4.04-10.23,11.21v15.48h-4.1V98.83h3.93v5.95
		C90.8,100.74,94.67,98.6,100.27,98.6z"/>
	<path class="st1" d="M104.32,114.02c0-9.01,6.59-15.42,15.48-15.42s15.42,6.41,15.42,15.42c0,9.01-6.53,15.48-15.42,15.48
		S104.32,123.03,104.32,114.02z M131.07,114.02c0-7.11-4.79-11.84-11.27-11.84s-11.32,4.74-11.32,11.84
		c0,7.11,4.85,11.84,11.32,11.84S131.07,121.13,131.07,114.02z"/>
	<path class="st1" d="M193.75,111.6v17.62h-4.1V112c0-6.41-3.23-9.71-8.72-9.71c-6.24,0-10.17,4.04-10.17,10.98v15.94h-4.1V112
		c0-6.41-3.24-9.71-8.78-9.71c-6.18,0-10.17,4.04-10.17,10.98v15.94h-4.1V98.83h3.93v5.55c2.14-3.64,6.07-5.78,11.15-5.78
		c5.03,0,8.95,2.14,10.8,6.41c2.2-3.93,6.53-6.41,12.02-6.41C188.9,98.6,193.75,102.87,193.75,111.6z"/>
	<path class="st1" d="M201.96,114.02c0-9.01,6.59-15.42,15.48-15.42s15.42,6.41,15.42,15.42c0,9.01-6.53,15.48-15.42,15.48
		S201.96,123.03,201.96,114.02z M228.71,114.02c0-7.11-4.79-11.84-11.27-11.84s-11.32,4.74-11.32,11.84
		c0,7.11,4.85,11.84,11.32,11.84S228.71,121.13,228.71,114.02z"/>
	<path class="st1" d="M257.25,127.37c-1.62,1.44-4.04,2.14-6.41,2.14c-5.72,0-8.9-3.24-8.9-8.84v-18.37h-5.43v-3.47h5.43v-6.64h4.1
		v6.64h9.24v3.47h-9.24v18.14c0,3.58,1.85,5.55,5.26,5.55c1.68,0,3.35-0.52,4.51-1.56L257.25,127.37z"/>
	<path class="st1" d="M263.78,89.24c0-1.56,1.33-2.89,3-2.89s3,1.27,3,2.83c0,1.68-1.27,3-3,3
		C265.11,92.19,263.78,90.86,263.78,89.24z M264.71,98.83h4.1v30.39h-4.1V98.83z"/>
	<path class="st1" d="M277.19,114.02c0-9.01,6.59-15.42,15.48-15.42s15.42,6.41,15.42,15.42c0,9.01-6.53,15.48-15.42,15.48
		S277.19,123.03,277.19,114.02z M303.93,114.02c0-7.11-4.79-11.84-11.27-11.84s-11.32,4.74-11.32,11.84
		c0,7.11,4.85,11.84,11.32,11.84S303.93,121.13,303.93,114.02z"/>
	<path class="st1" d="M344.43,111.6v17.62h-4.1V112c0-6.41-3.35-9.71-9.13-9.71c-6.53,0-10.63,4.04-10.63,10.98v15.94h-4.1V98.83
		h3.93v5.6c2.2-3.7,6.3-5.83,11.55-5.83C339.35,98.6,344.43,102.87,344.43,111.6z"/>
	<path class="st2" d="M366.51,125.75l1.85-3.24c2.43,1.91,6.53,3.41,10.8,3.41c5.78,0,8.15-1.96,8.15-4.97
		c0-7.92-19.7-1.68-19.7-13.69c0-4.97,4.27-8.67,12.02-8.67c3.93,0,8.2,1.1,10.75,2.83l-1.79,3.29c-2.66-1.85-5.83-2.6-8.95-2.6
		c-5.49,0-7.91,2.14-7.91,5.03c0,8.2,19.7,2.02,19.7,13.69c0,5.26-4.62,8.67-12.54,8.67C373.84,129.5,368.99,127.89,366.51,125.75z"
		/>
	<path class="st2" d="M426.36,98.83v30.39h-3.93v-5.55c-2.14,3.7-6.07,5.83-10.92,5.83c-7.74,0-12.83-4.33-12.83-13.06V98.83h4.1
		v17.21c0,6.47,3.35,9.76,9.13,9.76c6.35,0,10.34-4.1,10.34-11.03V98.83H426.36z"/>
	<path class="st2" d="M453.17,98.6v3.99c-0.35,0-0.69-0.06-0.98-0.06c-6.35,0-10.23,4.04-10.23,11.21v15.48h-4.1V98.83h3.93v5.95
		C443.69,100.74,447.56,98.6,453.17,98.6z"/>
	<path class="st2" d="M476.16,86.35h4.1v42.87h-4.1V86.35z"/>
	<path class="st2" d="M518.16,115.29h-25.42c0.46,6.36,5.31,10.57,11.96,10.57c3.7,0,6.99-1.33,9.3-3.99l2.31,2.66
		c-2.72,3.24-6.93,4.97-11.73,4.97c-9.47,0-15.94-6.47-15.94-15.48c0-9.01,6.3-15.42,14.85-15.42c8.55,0,14.73,6.3,14.73,15.42
		C518.22,114.37,518.16,114.83,518.16,115.29z M492.75,112.23h21.55c-0.52-5.95-4.85-10.11-10.8-10.11
		C497.6,102.12,493.27,106.28,492.75,112.23z"/>
	<path class="st2" d="M522.39,125.75l1.85-3.24c2.43,1.91,6.53,3.41,10.8,3.41c5.78,0,8.15-1.96,8.15-4.97
		c0-7.92-19.7-1.68-19.7-13.69c0-4.97,4.27-8.67,12.02-8.67c3.93,0,8.2,1.1,10.75,2.83l-1.79,3.29c-2.66-1.85-5.83-2.6-8.95-2.6
		c-5.49,0-7.91,2.14-7.91,5.03c0,8.2,19.7,2.02,19.7,13.69c0,5.26-4.62,8.67-12.54,8.67C529.72,129.5,524.87,127.89,522.39,125.75z"
		/>
	<path class="st2" d="M569.99,86.35h4.1v42.87h-4.1V86.35z"/>
	<path class="st2" d="M608.47,110.38v18.83h-3.93v-4.74c-1.85,3.12-5.43,5.03-10.46,5.03c-6.88,0-11.09-3.58-11.09-8.84
		c0-4.68,3-8.61,11.73-8.61h9.65v-1.85c0-5.2-2.95-8.03-8.61-8.03c-3.93,0-7.63,1.39-10.11,3.58l-1.85-3.06
		c3.06-2.6,7.57-4.1,12.36-4.1C604.02,98.6,608.47,102.53,608.47,110.38z M604.37,120.09v-4.97h-9.53c-5.89,0-7.8,2.31-7.8,5.43
		c0,3.52,2.83,5.72,7.68,5.72C599.34,126.27,602.75,124.07,604.37,120.09z"/>
	<path class="st2" d="M669.77,111.6v17.62h-4.1V112c0-6.41-3.24-9.71-8.72-9.71c-6.24,0-10.17,4.04-10.17,10.98v15.94h-4.1V112
		c0-6.41-3.24-9.71-8.78-9.71c-6.18,0-10.17,4.04-10.17,10.98v15.94h-4.1V98.83h3.93v5.55c2.14-3.64,6.07-5.78,11.15-5.78
		c5.03,0,8.96,2.14,10.8,6.41c2.2-3.93,6.53-6.41,12.02-6.41C664.91,98.6,669.77,102.87,669.77,111.6z"/>
	<path class="st2" d="M707.5,115.29h-25.42c0.46,6.36,5.32,10.57,11.96,10.57c3.7,0,6.99-1.33,9.3-3.99l2.31,2.66
		c-2.71,3.24-6.93,4.97-11.73,4.97c-9.47,0-15.94-6.47-15.94-15.48c0-9.01,6.3-15.42,14.85-15.42s14.73,6.3,14.73,15.42
		C707.55,114.37,707.5,114.83,707.5,115.29z M682.08,112.23h21.55c-0.52-5.95-4.85-10.11-10.8-10.11
		C686.93,102.12,682.6,106.28,682.08,112.23z"/>
	<path class="st2" d="M711.72,125.75l1.85-3.24c2.43,1.91,6.53,3.41,10.8,3.41c5.78,0,8.15-1.96,8.15-4.97
		c0-7.92-19.7-1.68-19.7-13.69c0-4.97,4.28-8.67,12.02-8.67c3.93,0,8.2,1.1,10.75,2.83l-1.79,3.29c-2.66-1.85-5.83-2.6-8.95-2.6
		c-5.49,0-7.92,2.14-7.92,5.03c0,8.2,19.7,2.02,19.7,13.69c0,5.26-4.62,8.67-12.54,8.67C719.05,129.5,714.2,127.89,711.72,125.75z"
		/>
	<path class="st2" d="M787.05,86.35v42.87h-3.93v-6.01c-2.48,4.1-6.7,6.3-11.73,6.3c-8.67,0-15.14-6.3-15.14-15.48
		s6.47-15.42,15.14-15.42c4.85,0,9.01,2.08,11.55,6.01V86.35H787.05z M783.01,114.02c0-7.11-4.85-11.84-11.27-11.84
		c-6.47,0-11.32,4.74-11.32,11.84c0,7.11,4.85,11.84,11.32,11.84C778.16,125.87,783.01,121.13,783.01,114.02z"/>
	<path class="st2" d="M824.95,115.29h-25.42c0.46,6.36,5.32,10.57,11.96,10.57c3.7,0,6.99-1.33,9.3-3.99l2.31,2.66
		c-2.71,3.24-6.93,4.97-11.73,4.97c-9.47,0-15.94-6.47-15.94-15.48c0-9.01,6.3-15.42,14.85-15.42s14.73,6.3,14.73,15.42
		C825.01,114.37,824.95,114.83,824.95,115.29z M799.54,112.23h21.55c-0.52-5.95-4.85-10.11-10.8-10.11
		C804.39,102.12,800.06,106.28,799.54,112.23z"/>
	<path class="st2" d="M864.53,127.37c-1.62,1.44-4.04,2.14-6.41,2.14c-5.72,0-8.9-3.24-8.9-8.84v-18.37h-5.43v-3.47h5.43v-6.64h4.1
		v6.64h9.24v3.47h-9.24v18.14c0,3.58,1.85,5.55,5.26,5.55c1.67,0,3.35-0.52,4.51-1.56L864.53,127.37z"/>
	<path class="st2" d="M897.35,115.29h-25.42c0.46,6.36,5.32,10.57,11.96,10.57c3.7,0,6.99-1.33,9.3-3.99l2.31,2.66
		c-2.71,3.24-6.93,4.97-11.73,4.97c-9.47,0-15.94-6.47-15.94-15.48c0-9.01,6.3-15.42,14.85-15.42s14.73,6.3,14.73,15.42
		C897.4,114.37,897.35,114.83,897.35,115.29z M871.93,112.23h21.55c-0.52-5.95-4.85-10.11-10.8-10.11
		C876.78,102.12,872.45,106.28,871.93,112.23z"/>
	<path class="st2" d="M921.09,98.6v3.99c-0.35,0-0.69-0.06-0.98-0.06c-6.35,0-10.22,4.04-10.22,11.21v15.48h-4.1V98.83h3.93v5.95
		C911.62,100.74,915.49,98.6,921.09,98.6z"/>
	<path class="st2" d="M943.8,98.6v3.99c-0.35,0-0.69-0.06-0.98-0.06c-6.35,0-10.22,4.04-10.22,11.21v15.48h-4.1V98.83h3.93v5.95
		C934.32,100.74,938.2,98.6,943.8,98.6z"/>
	<path class="st2" d="M974.07,110.38v18.83h-3.93v-4.74c-1.85,3.12-5.43,5.03-10.46,5.03c-6.88,0-11.09-3.58-11.09-8.84
		c0-4.68,3-8.61,11.73-8.61h9.65v-1.85c0-5.2-2.95-8.03-8.61-8.03c-3.93,0-7.63,1.39-10.11,3.58l-1.85-3.06
		c3.06-2.6,7.57-4.1,12.36-4.1C969.62,98.6,974.07,102.53,974.07,110.38z M969.97,120.09v-4.97h-9.53c-5.89,0-7.8,2.31-7.8,5.43
		c0,3.52,2.83,5.72,7.68,5.72C964.95,126.27,968.35,124.07,969.97,120.09z"/>
	<path class="st2" d="M981.01,125.75l1.85-3.24c2.43,1.91,6.53,3.41,10.8,3.41c5.78,0,8.15-1.96,8.15-4.97
		c0-7.92-19.7-1.68-19.7-13.69c0-4.97,4.28-8.67,12.02-8.67c3.93,0,8.2,1.1,10.75,2.83l-1.79,3.29c-2.66-1.85-5.83-2.6-8.95-2.6
		c-5.49,0-7.92,2.14-7.92,5.03c0,8.2,19.7,2.02,19.7,13.69c0,5.26-4.62,8.67-12.54,8.67C988.35,129.5,983.49,127.89,981.01,125.75z"
		/>
	<path class="st2" d="M1009.26,125.75l1.85-3.24c2.43,1.91,6.53,3.41,10.8,3.41c5.78,0,8.15-1.96,8.15-4.97
		c0-7.92-19.7-1.68-19.7-13.69c0-4.97,4.28-8.67,12.02-8.67c3.93,0,8.2,1.1,10.75,2.83l-1.79,3.29c-2.66-1.85-5.83-2.6-8.95-2.6
		c-5.49,0-7.92,2.14-7.92,5.03c0,8.2,19.7,2.02,19.7,13.69c0,5.26-4.62,8.67-12.54,8.67C1016.6,129.5,1011.75,127.89,1009.26,125.75
		z"/>
	<path class="st2" d="M1068.19,115.29h-25.42c0.46,6.36,5.32,10.57,11.96,10.57c3.7,0,6.99-1.33,9.3-3.99l2.31,2.66
		c-2.71,3.24-6.93,4.97-11.73,4.97c-9.47,0-15.94-6.47-15.94-15.48c0-9.01,6.3-15.42,14.85-15.42s14.73,6.3,14.73,15.42
		C1068.25,114.37,1068.19,114.83,1068.19,115.29z M1042.77,112.23h21.55c-0.52-5.95-4.85-10.11-10.8-10.11
		C1047.62,102.12,1043.29,106.28,1042.77,112.23z"/>
</g>
</svg>
