<?xml version="1.0" encoding="utf-8"?>
<!-- Generator: Adobe Illustrator 25.2.1, SVG Export Plug-In . SVG Version: 6.00 Build 0)  -->
<svg version="1.1" id="Calque_1" xmlns="http://www.w3.org/2000/svg" xmlns:xlink="http://www.w3.org/1999/xlink" x="0px" y="0px"
	 viewBox="0 0 512 408" style="enable-background:new 0 0 512 408;" xml:space="preserve">
<style type="text/css">
	.st0{fill:#34B296;}
</style>
<path class="st0" d="M464.52,142.63c-8.69-28.14-9.89-62.66-8.96-89.31C456.52,25.58,434.91,0,405.7,0H106.34
	C77.13,0,55.51,25.58,56.48,53.32c0.93,26.65-0.28,61.17-8.96,89.31C38.8,170.86,24.07,188.71,0,191v26
	c24.07,2.29,38.8,20.14,47.52,48.37c8.68,28.15,9.89,62.66,8.96,89.31C55.52,382.42,77.13,408,106.34,408H405.7
	c29.21,0,50.82-25.58,49.86-53.32c-0.93-26.65,0.27-61.17,8.96-89.31c8.71-28.23,23.41-46.08,47.48-48.37v-26
	C487.93,188.71,473.23,170.86,464.52,142.63z M322.63,82.55h-32.57v194.39c0,26.61-6.42,46.33-19.38,59.18
	c-12.85,12.73-30.05,19.15-51.49,19.15c-10.9,0-22.83-1.37-36.02-4.24v-43.47c6.77,1.95,12.73,2.98,17.89,2.98
	c9.52,0,16.41-2.63,20.53-7.91c4.13-5.27,6.2-14.56,6.2-27.87V82.55h-35.67V42.06h130.51V82.55z"/>
</svg>
